<svg xmlns="http://www.w3.org/2000/svg" autoMirrored="true" height="20dp" viewportHeight="19.774" viewportWidth="19.774" width="20dp" xmlns:android="http://schemas.android.com/apk/res/android">
	<path fill="#6A737C" d="M11.371,19.741a1.216,1.216 0,0 0,-0.2 0.017,1.216 1.216,0 0,1 -0.2,0.017 3.037,3.037 0,0 1,-1.167 -0.233,3.156 3.156,0 0,1 -1.034,-0.7 0.33,0.33 0,0 1,-0.117 -0.1,0.331 0.331,0 0,0 -0.117,-0.1 3.732,3.732 0,0 1,-1.134 -1.651,3.1 3.1,0 0,1 -0.133,-1.884 2.8,2.8 0,0 0,0.067 -1.351,1.463 1.463,0 0,0 -0.434,-0.884 1.971,1.971 0,0 1,-0.617 -1.117,1.436 1.436,0 0,1 0.25,-1.15 4.754,4.754 0,0 0,0.467 -0.9,3.384 3.384,0 0,0 0.267,-1.034 0.681,0.681 0,0 0,0 -0.3,0.752 0.752,0 0,0 -0.133,-0.267 0.626,0.626 0,0 0,-0.25 -0.2,0.771 0.771,0 0,0 -0.317,-0.067 0.9,0.9 0,0 0,-0.283 0.05,0.628 0.628,0 0,0 -0.25,0.15 0.5,0.5 0,0 0,-0.133 0.233,1.239 1.239,0 0,0 -0.033,0.3 3.2,3.2 0,0 1,-0.283 1.351,4.207 4.207,0 0,1 -0.817,1.317 3.946,3.946 0,0 1,-1.134 0.834,1.24 1.24,0 0,1 -1.134,0.1 1.054,1.054 0,0 1,-0.567 -0.784,2.233 2.233,0 0,1 0.1,-1.25 0.892,0.892 0,0 0,0.067 -0.333,0.662 0.662,0 0,0 -0.067,-0.3 0.718,0.718 0,0 0,-0.183 -0.183,0.733 0.733,0 0,0 -0.25,-0.117l-0.8,-0.167q-0.033,0.2 -0.05,0.434t-0.017,0.467a8.907,8.907 0,0 0,0.533 3.068,9.48 9.48,0 0,0 1.467,2.651 9.022,9.022 0,0 0,2.234 2.017,9.121 9.121,0 0,0 2.868,1.2 0.365,0.365 0,0 1,0.25 0.167,0.335 0.335,0 0,1 0.05,0.267 0.365,0.365 0,0 1,-0.167 0.25,0.4 0.4,0 0,1 -0.3,0.05 9.864,9.864 0,0 1,-3.1 -1.3,9.631 9.631,0 0,1 -2.451,-2.184 10.079,10.079 0,0 1,-1.584 -2.851,10.475 10.475,0 0,1 -0.534,-3.335q0,-0.367 0.017,-0.717t0.05,-0.717l0.067,-0.133 0.1,-0.1a0.29,0.29 0,0 1,0.15 -0.083,0.228 0.228,0 0,1 0.15,0.017l1.2,0.233a1.455,1.455 0,0 1,0.584 0.25,1.241 1.241,0 0,1 0.383,0.45 1.285,1.285 0,0 1,0.167 0.634,2.31 2.31,0 0,1 -0.1,0.667 1.193,1.193 0,0 0,-0.117 0.684q0.05,0.317 0.15,0.35 0.133,0.067 0.567,-0.117a2.455,2.455 0,0 0,0.834 -0.617,3.635 3.635,0 0,0 0.667,-1.067 2.313,2.313 0,0 0,0.233 -1.034,1.842 1.842,0 0,1 0.1,-0.617 1.615,1.615 0,0 1,0.3 -0.517,1.376 1.376,0 0,1 0.517,-0.333 1.414,1.414 0,0 1,1.2 0.067,1.283 1.283,0 0,1 0.484,0.4 1.375,1.375 0,0 1,0.283 0.534,1.573 1.573,0 0,1 0.05,0.6 4.935,4.935 0,0 1,-0.333 1.2,4.7 4.7,0 0,1 -0.567,1.067 0.865,0.865 0,0 0,-0.1 0.634,0.954 0.954,0 0,0 0.367,0.6 2.224,2.224 0,0 1,0.667 1.317,3.725 3.725,0 0,1 -0.067,1.717 2.411,2.411 0,0 0,0.133 1.451A2.924,2.924 0,0 0,9 18.04a1.821,1.821 0,0 0,0.15 0.133,1.83 1.83,0 0,1 0.15,0.133 2.75,2.75 0,0 0,0.95 0.584,1.886 1.886,0 0,0 1.017,0.083 8.418,8.418 0,0 0,3.068 -1.067,8.89 8.89,0 0,0 2.468,-2.017 9.642,9.642 0,0 0,1.634 -2.751,9.161 9.161,0 0,0 0.567,-3.2 0.4,0.4 0,0 1,0.4 -0.4,0.351 0.351,0 0,1 0.25,0.117 0.386,0.386 0,0 1,0.117 0.283,9.682 9.682,0 0,1 -0.634,3.468 9.928,9.928 0,0 1,-4.435 5.169,9.181 9.181,0 0,1 -3.335,1.167ZM10.971,11.671a0.73,0.73 0,0 1,0.333 -0.5,1.051 1.051,0 0,1 0.567,-0.167 1.216,1.216 0,0 1,0.2 0.017,1.213 1.213,0 0,0 0.2,0.017 0.269,0.269 0,0 0,0.117 0.033h0.15a0.5,0.5 0,0 0,0.267 -0.083,1.188 1.188,0 0,0 0.3,-0.317 0.059,0.059 0,0 1,0.067 -0.067l0.9,-0.8q0.2,-0.167 0.417,-0.333a2.965,2.965 0,0 1,0.484 -0.3,1.922 1.922,0 0,1 2.1,0.433h0a1.367,1.367 0,0 1,0.283 0.55,1.68 1.68,0 0,1 0.05,0.617 1.25,1.25 0,0 1,-0.133 0.567,1.161 1.161,0 0,1 -0.367,0.434 0.856,0.856 0,0 1,-0.317 0.2,3.021 3.021,0 0,0 -0.317,0.133 2.775,2.775 0,0 1,-0.267 0.117,0.56 0.56,0 0,0 -0.2,0.117 1.31,1.31 0,0 0,-0.183 0.233q-0.083,0.133 -0.15,0.267 -0.133,0.233 -0.317,0.5a0.938,0.938 0,0 1,-0.55 0.367,0.6 0.6,0 0,1 -0.15,0.05 0.938,0.938 0,0 1,-0.183 0.017,1.372 1.372,0 0,1 -0.517,-0.117 1.991,1.991 0,0 1,-0.55 -0.35l-0.167,-0.167q-0.167,-0.133 -0.317,-0.25a1.3,1.3 0,0 0,-0.317 -0.183,0.549 0.549,0 0,1 -0.133,-0.017 0.7,0.7 0,0 0,-0.167 -0.017,1.216 1.216,0 0,1 -0.2,-0.017 1.317,1.317 0,0 1,-0.2 -0.05,1 1,0 0,1 -0.567,-0.333 0.67,0.67 0,0 1,-0.167 -0.6ZM11.738,11.804 L11.788,11.837 11.871,11.87a0.331,0.331 0,0 0,0.15 0.033h0.15a0.682,0.682 0,0 0,0.217 0.033,0.681 0.681,0 0,1 0.217,0.033 2,2 0,0 1,0.534 0.267,3.18 3.18,0 0,1 0.4,0.333l0.167,0.133a1.505,1.505 0,0 0,0.3 0.217,0.523 0.523,0 0,0 0.367,0.083 0.354,0.354 0,0 0,0.217 -0.167q0.083,-0.133 0.217,-0.367 0.1,-0.167 0.217,-0.35a2.06,2.06 0,0 1,0.283 -0.35,1.888 1.888,0 0,1 0.333,-0.217q0.167,-0.083 0.333,-0.15 0.133,-0.067 0.25,-0.117a1.345,1.345 0,0 0,0.217 -0.117,0.408 0.408,0 0,0 0.15,-0.183 1.442,1.442 0,0 0,0.083 -0.283,0.975 0.975,0 0,0 -0.2,-0.6 0.915,0.915 0,0 0,-0.534 -0.3,1.153 1.153,0 0,0 -0.667,0.067q-0.167,0.1 -0.35,0.233t-0.35,0.267l-0.9,0.767a2.739,2.739 0,0 1,-0.467 0.484,1.023 1.023,0 0,1 -0.667,0.217h-0.2l-0.2,-0.033a0.548,0.548 0,0 1,-0.133 -0.017,0.549 0.549,0 0,0 -0.133,-0.017 0.232,0.232 0,0 0,-0.1 0.017,0.262 0.262,0 0,0 -0.067,0.05ZM11.204,17.573q-0.167,0.033 -0.317,0.067a1.308,1.308 0,0 1,-0.283 0.033,2.132 2.132,0 0,1 -0.967,-0.217 1.2,1.2 0,0 1,-0.6 -0.617,1.464 1.464,0 0,1 -0.05,-1 1.363,1.363 0,0 1,0.55 -0.8,1.241 1.241,0 0,1 1.067,-0.133 2.369,2.369 0,0 1,1.134 0.7,1.435 1.435,0 0,1 0.367,0.584 1.062,1.062 0,0 1,0.033 0.584,1.223 1.223,0 0,1 -0.333,0.517 1.166,1.166 0,0 1,-0.6 0.283ZM11.204,16.139a1.977,1.977 0,0 0,-0.55 -0.4,1.179 1.179,0 0,0 -0.483,-0.133 0.369,0.369 0,0 0,-0.117 0.017,0.209 0.209,0 0,0 -0.083,0.05 0.8,0.8 0,0 0,-0.25 0.4,0.609 0.609,0 0,0 0.017,0.467 0.688,0.688 0,0 0,0.467 0.3,1.622 1.622,0 0,0 0.8,0 0.744,0.744 0,0 0,0.267 -0.1,0.322 0.322,0 0,0 0.133,-0.167 0.237,0.237 0,0 0,-0.033 -0.2,0.889 0.889,0 0,0 -0.167,-0.233ZM18.004,8.169 L17.237,8.202a1.049,1.049 0,0 0,-0.167 0.017,1.212 1.212,0 0,1 -0.2,0.017 4.517,4.517 0,0 1,-1.367 -0.2,1.269 1.269,0 0,1 -0.834,-0.634 2.218,2.218 0,0 0,-0.333 -0.517,2.94 2.94,0 0,0 -0.4,-0.417h0a1.242,1.242 0,0 0,-0.367 0.183,2.355 2.355,0 0,0 -0.634,0.65 2.1,2.1 0,0 1,-0.584 0.517,1.062 1.062,0 0,1 -0.65,0.15 1.341,1.341 0,0 1,-0.684 -0.267,1.73 1.73,0 0,1 -0.517,-0.634 2.337,2.337 0,0 1,-0.333 -0.9,1.678 1.678,0 0,1 0.333,-1.351 1.339,1.339 0,0 1,0.4 -0.35,2 2,0 0,0 0.75,-0.584 1.749,1.749 0,0 0,0.417 -0.784,1.614 1.614,0 0,0 0,-0.8 2.211,2.211 0,0 0,-0.3 -0.767l-0.534,-0.667q-0.333,-0.067 -0.667,-0.1t-0.7,-0.033a8.611,8.611 0,0 0,-2.8 0.467,9.125 9.125,0 0,0 -4.468,3.168 8.633,8.633 0,0 0,-1.334 2.534,0.6 0.6,0 0,1 -0.167,0.167 0.359,0.359 0,0 1,-0.2 0.067h-0.133a0.47,0.47 0,0 1,-0.233 -0.5,9.606 9.606,0 0,1 1.467,-2.7 10.214,10.214 0,0 1,2.151 -2.117,9.374 9.374,0 0,1 2.684,-1.351 9.949,9.949 0,0 1,3.035 -0.467q0.434,0 0.834,0.033t0.8,0.1h0.067q0.033,0.033 0.05,0.033h0.017l0.067,0.067q0.033,0 0.033,0.017v0.017l0.634,0.834a2.9,2.9 0,0 1,0.434 2.2,2.468 2.468,0 0,1 -0.55,1.05 3.042,3.042 0,0 1,-0.984 0.817,0.5 0.5,0 0,0 -0.2,0.167 0.841,0.841 0,0 0,-0.1 0.2,1.081 1.081,0 0,0 -0.05,0.567 1.867,1.867 0,0 0,0.217 0.6,1.266 1.266,0 0,0 0.3,0.367 0.534,0.534 0,0 0,0.333 0.133,0.587 0.587,0 0,0 0.283,-0.083 0.674,0.674 0,0 0,0.25 -0.25,3.881 3.881,0 0,1 1.017,-0.984 0.864,0.864 0,0 1,1.05 -0.05,2.134 2.134,0 0,1 0.55,0.55 4.954,4.954 0,0 1,0.45 0.717,1.3 1.3,0 0,0 0.55,0.25 3.476,3.476 0,0 0,1.284 0.083l0.734,-0.033a0.979,0.979 0,0 0,0.25 -0.1,0.511 0.511,0 0,0 0.267,-0.4 0.333,0.333 0,0 0,-0.05 -0.233,9.048 9.048,0 0,0 -5.069,-5.235 0.349,0.349 0,0 1,-0.217 -0.217,0.5 0.5,0 0,1 -0.017,-0.283 0.349,0.349 0,0 1,0.217 -0.217,0.358 0.358,0 0,1 0.283,0.017 9.735,9.735 0,0 1,3.351 2.251,9.9 9.9,0 0,1 2.184,3.385 1.391,1.391 0,0 1,0.067 0.6,1.372 1.372,0 0,1 -1.2,1.2Z"/>
</svg>
