<svg xmlns="http://www.w3.org/2000/svg" width="13.642" height="13.642" viewBox="0 0 13.642 13.642">
  <path id="internet_gray" d="M233.845,239.619a.839.839,0,0,0-.138.012.84.84,0,0,1-.138.011,2.1,2.1,0,0,1-.805-.161,2.178,2.178,0,0,1-.713-.483.228.228,0,0,1-.081-.069.229.229,0,0,0-.081-.069,2.575,2.575,0,0,1-.782-1.139,2.138,2.138,0,0,1-.092-1.3,1.934,1.934,0,0,0,.046-.932,1.009,1.009,0,0,0-.3-.61,1.36,1.36,0,0,1-.426-.771.991.991,0,0,1,.173-.794,3.279,3.279,0,0,0,.322-.621,2.335,2.335,0,0,0,.184-.713.47.47,0,0,0,0-.207.519.519,0,0,0-.092-.184.432.432,0,0,0-.173-.138.532.532,0,0,0-.219-.046.619.619,0,0,0-.2.034.433.433,0,0,0-.173.1.341.341,0,0,0-.092.161.855.855,0,0,0-.023.207,2.206,2.206,0,0,1-.2.932,2.9,2.9,0,0,1-.564.909,2.722,2.722,0,0,1-.782.575.855.855,0,0,1-.782.069.727.727,0,0,1-.391-.541,1.54,1.54,0,0,1,.069-.863.615.615,0,0,0,.046-.23.457.457,0,0,0-.046-.207.5.5,0,0,0-.127-.126.506.506,0,0,0-.173-.081l-.552-.115q-.023.138-.034.3t-.011.322a6.145,6.145,0,0,0,.368,2.116,6.54,6.54,0,0,0,1.012,1.829,6.224,6.224,0,0,0,1.541,1.392,6.292,6.292,0,0,0,1.978.828.252.252,0,0,1,.173.115.231.231,0,0,1,.034.184.252.252,0,0,1-.115.173.275.275,0,0,1-.207.035,6.8,6.8,0,0,1-2.139-.9,6.644,6.644,0,0,1-1.691-1.507,6.954,6.954,0,0,1-1.093-1.967,7.226,7.226,0,0,1-.368-2.3q0-.253.012-.495t.034-.495l.046-.092.069-.069a.2.2,0,0,1,.1-.057.157.157,0,0,1,.1.011l.828.161a1,1,0,0,1,.4.173.856.856,0,0,1,.265.311.887.887,0,0,1,.115.437,1.593,1.593,0,0,1-.069.46.823.823,0,0,0-.081.472q.035.219.1.242.092.046.391-.081a1.693,1.693,0,0,0,.575-.426,2.508,2.508,0,0,0,.46-.736,1.6,1.6,0,0,0,.161-.713,1.271,1.271,0,0,1,.069-.426,1.114,1.114,0,0,1,.207-.357.95.95,0,0,1,.357-.23.976.976,0,0,1,.828.046.886.886,0,0,1,.334.276.949.949,0,0,1,.2.368,1.085,1.085,0,0,1,.035.414,3.406,3.406,0,0,1-.23.828,3.247,3.247,0,0,1-.391.736.6.6,0,0,0-.069.437.658.658,0,0,0,.253.414,1.534,1.534,0,0,1,.46.909,2.57,2.57,0,0,1-.046,1.185,1.663,1.663,0,0,0,.092,1,2.017,2.017,0,0,0,.6.886,1.262,1.262,0,0,0,.1.092,1.261,1.261,0,0,1,.1.092,1.9,1.9,0,0,0,.656.4,1.3,1.3,0,0,0,.7.058,5.807,5.807,0,0,0,2.116-.736,6.133,6.133,0,0,0,1.7-1.392,6.653,6.653,0,0,0,1.127-1.9,6.32,6.32,0,0,0,.391-2.208.275.275,0,0,1,.276-.276.242.242,0,0,1,.173.081.266.266,0,0,1,.081.2,6.679,6.679,0,0,1-.437,2.392,6.849,6.849,0,0,1-3.06,3.566,6.333,6.333,0,0,1-2.3.805Zm-.276-5.567a.5.5,0,0,1,.23-.345.725.725,0,0,1,.391-.115.839.839,0,0,1,.138.012.836.836,0,0,0,.138.012.185.185,0,0,0,.081.023h.1a.345.345,0,0,0,.184-.057.82.82,0,0,0,.207-.219.041.041,0,0,1,.046-.046l.621-.552q.138-.115.288-.23a2.043,2.043,0,0,1,.334-.207,1.326,1.326,0,0,1,1.449.3h0a.943.943,0,0,1,.2.38,1.159,1.159,0,0,1,.035.426.862.862,0,0,1-.092.391.8.8,0,0,1-.253.3.591.591,0,0,1-.219.138,2.085,2.085,0,0,0-.219.092,1.917,1.917,0,0,1-.184.081.386.386,0,0,0-.138.081.9.9,0,0,0-.126.161q-.058.092-.1.184-.092.161-.219.345a.647.647,0,0,1-.38.253.411.411,0,0,1-.1.035.647.647,0,0,1-.127.012.946.946,0,0,1-.357-.081,1.374,1.374,0,0,1-.38-.242l-.115-.115-.219-.173a.9.9,0,0,0-.219-.127.379.379,0,0,1-.092-.012.482.482,0,0,0-.115-.012.839.839,0,0,1-.138-.012.909.909,0,0,1-.138-.035.688.688,0,0,1-.391-.23.462.462,0,0,1-.115-.414Zm.529.092.035.023.057.023a.228.228,0,0,0,.1.023h.1a.47.47,0,0,0,.15.023.47.47,0,0,1,.15.023,1.378,1.378,0,0,1,.368.184,2.193,2.193,0,0,1,.276.23l.115.092a1.04,1.04,0,0,0,.207.15.361.361,0,0,0,.253.057.244.244,0,0,0,.15-.115q.057-.092.15-.253.069-.115.15-.242a1.42,1.42,0,0,1,.2-.242,1.3,1.3,0,0,1,.23-.15q.115-.058.23-.1.092-.046.173-.081a.927.927,0,0,0,.15-.081.281.281,0,0,0,.1-.127,1,1,0,0,0,.058-.2.673.673,0,0,0-.138-.414.631.631,0,0,0-.368-.207.8.8,0,0,0-.46.046q-.115.069-.242.161t-.242.184l-.621.529a1.889,1.889,0,0,1-.322.334.706.706,0,0,1-.46.15h-.138l-.138-.023a.378.378,0,0,1-.092-.012.379.379,0,0,0-.092-.012.16.16,0,0,0-.069.012.18.18,0,0,0-.046.034Zm-.368,3.98-.219.046a.9.9,0,0,1-.2.023,1.471,1.471,0,0,1-.667-.15.828.828,0,0,1-.414-.426,1.01,1.01,0,0,1-.034-.69.94.94,0,0,1,.38-.552.856.856,0,0,1,.736-.092,1.634,1.634,0,0,1,.782.483.99.99,0,0,1,.253.4.732.732,0,0,1,.023.4.844.844,0,0,1-.23.357.8.8,0,0,1-.414.2Zm0-.989a1.364,1.364,0,0,0-.38-.276.814.814,0,0,0-.334-.092.254.254,0,0,0-.081.012.144.144,0,0,0-.058.035.553.553,0,0,0-.173.276.42.42,0,0,0,.012.322.475.475,0,0,0,.322.207,1.119,1.119,0,0,0,.552,0,.514.514,0,0,0,.184-.069.222.222,0,0,0,.092-.115.163.163,0,0,0-.023-.138.614.614,0,0,0-.115-.161Zm4.693-5.5-.529.023a.723.723,0,0,0-.115.011.836.836,0,0,1-.138.012,3.116,3.116,0,0,1-.943-.138.875.875,0,0,1-.575-.437,1.53,1.53,0,0,0-.23-.357,2.028,2.028,0,0,0-.276-.288h0a.857.857,0,0,0-.253.127,1.626,1.626,0,0,0-.437.449,1.452,1.452,0,0,1-.4.357.733.733,0,0,1-.449.1.926.926,0,0,1-.472-.184,1.194,1.194,0,0,1-.357-.437,1.613,1.613,0,0,1-.23-.621,1.158,1.158,0,0,1,.23-.932.924.924,0,0,1,.276-.242,1.381,1.381,0,0,0,.518-.4,1.206,1.206,0,0,0,.288-.541,1.114,1.114,0,0,0,0-.552,1.525,1.525,0,0,0-.207-.529l-.368-.46q-.23-.046-.46-.069t-.483-.023a5.94,5.94,0,0,0-1.932.322,6.295,6.295,0,0,0-3.083,2.185,5.955,5.955,0,0,0-.92,1.748.411.411,0,0,1-.115.115.247.247,0,0,1-.138.046h-.092a.324.324,0,0,1-.161-.345,6.627,6.627,0,0,1,1.012-1.863,7.046,7.046,0,0,1,1.484-1.461,6.466,6.466,0,0,1,1.852-.932,6.864,6.864,0,0,1,2.093-.322q.3,0,.575.023t.552.069h.046q.023.023.034.023h.012l.046.046q.023,0,.023.012v.011l.437.575a2,2,0,0,1,.3,1.518,1.7,1.7,0,0,1-.38.725,2.1,2.1,0,0,1-.679.564.347.347,0,0,0-.138.115.582.582,0,0,0-.069.138.746.746,0,0,0-.034.391,1.288,1.288,0,0,0,.15.414.873.873,0,0,0,.207.253.369.369,0,0,0,.23.092.405.405,0,0,0,.2-.057.465.465,0,0,0,.173-.173,2.678,2.678,0,0,1,.7-.679.6.6,0,0,1,.725-.034,1.472,1.472,0,0,1,.38.38,3.418,3.418,0,0,1,.311.495.9.9,0,0,0,.38.173,2.4,2.4,0,0,0,.886.058l.506-.023a.676.676,0,0,0,.173-.069.352.352,0,0,0,.184-.276.23.23,0,0,0-.034-.161,6.242,6.242,0,0,0-3.5-3.612.241.241,0,0,1-.15-.15.345.345,0,0,1-.012-.2.241.241,0,0,1,.15-.15.247.247,0,0,1,.2.012,6.716,6.716,0,0,1,2.312,1.553,6.827,6.827,0,0,1,1.507,2.335.96.96,0,0,1,.046.414.947.947,0,0,1-.828.828Z" transform="translate(-226 -226)" fill="#6a737c"/>
</svg>
